<svg width="375" height="456" viewBox="0 0 375 456" fill="none" xmlns="http://www.w3.org/2000/svg">
<path opacity="0.75" d="M779.3 6.60437C733.9 31.6044 742.1 137.204 668.5 169.604C597.4 200.904 538.1 106.204 447.8 134.204C401.1 148.704 373.5 234.104 347.1 268.704C293.5 339.204 147.7 280.604 37 377.204C5.79998 404.404 -1.80002 456.004 0.299983 455.804C3.79998 455.504 4.59998 440.304 14 422.404C25.9 399.504 46.8 379.304 70.8 365.604C151 319.804 228.1 327.304 309.9 313.904C405.2 298.204 386.8 201.004 467.6 179.804C526.6 164.304 574.2 223.404 719.9 273.604C737.5 279.604 951.5 351.504 999.5 282.104C1021.1 250.904 1001 202.804 986.8 168.804C947.6 75.1044 840.7 -27.1956 779.3 6.60437Z" fill="url(#paint0_linear)"/>
<defs>
<linearGradient id="paint0_linear" x1="-1.667e-05" y1="227.929" x2="1009.06" y2="227.929" gradientUnits="userSpaceOnUse">
<stop stop-color="#2C83DA"/>
<stop offset="1" stop-color="#4AB7F8"/>
</linearGradient>
</defs>
</svg>
