<svg width="375" height="106" viewBox="0 0 375 106" fill="none" xmlns="http://www.w3.org/2000/svg">
<path opacity="0.75" d="M45.5405 4.01358C73.1221 19.2065 68.1404 83.3813 112.854 103.071C156.049 122.093 192.076 64.5421 246.935 81.5582C275.306 90.37 292.074 142.269 308.113 163.296C340.676 206.14 429.253 170.528 496.506 229.233C515.461 245.763 520.078 277.121 518.802 277C516.676 276.817 516.19 267.58 510.479 256.702C503.25 242.785 490.553 230.509 475.972 222.184C427.248 194.35 380.408 198.908 330.713 190.765C272.816 181.224 283.994 122.154 234.906 109.27C199.062 99.8504 170.144 135.766 81.6275 166.274C70.935 169.92 -59.0753 213.615 -88.2365 171.439C-101.359 152.479 -89.1478 123.247 -80.5209 102.585C-56.7059 45.6421 8.23846 -16.5272 45.5405 4.01358Z" fill="url(#paint0_linear)"/>
<defs>
<linearGradient id="paint0_linear" x1="518.985" y1="138.516" x2="-94.0473" y2="138.516" gradientUnits="userSpaceOnUse">
<stop stop-color="#2C83DA"/>
<stop offset="1" stop-color="#4AB7F8"/>
</linearGradient>
</defs>
</svg>
