<svg width="209" height="135" viewBox="0 0 209 135" fill="none" xmlns="http://www.w3.org/2000/svg">
<circle cx="105" cy="60" r="60" fill="url(#paint0_linear)"/>
<path d="M151.209 10.5791L65.7407 68.4348L209 96.1485L151.209 10.5791ZM146.106 37.0048L167.531 68.7409L114.411 58.4684L146.106 37.0048Z" fill="#FCCC42"/>
<path d="M154.741 15.8154L147.761 20.5347" stroke="white" stroke-width="8.547"/>
<path d="M159.338 22.625L155.332 25.3383" stroke="white" stroke-width="8.547"/>
<path d="M163.946 29.4346L156.966 34.1644" stroke="white" stroke-width="8.547"/>
<path d="M168.543 36.2441L164.526 38.968" stroke="white" stroke-width="8.547"/>
<path d="M173.14 43.0547L166.16 47.7845" stroke="white" stroke-width="8.547"/>
<path d="M177.737 49.875L173.731 52.5883" stroke="white" stroke-width="8.547"/>
<path d="M182.345 56.6846L175.365 61.4038" stroke="white" stroke-width="8.547"/>
<path d="M186.942 63.4941L182.925 66.218" stroke="white" stroke-width="8.547"/>
<path d="M191.539 70.3037L184.559 75.0336" stroke="white" stroke-width="8.547"/>
<path d="M196.136 77.1133L192.13 79.8371" stroke="white" stroke-width="8.547"/>
<path d="M200.744 83.9336L193.764 88.6528" stroke="white" stroke-width="8.547"/>
<path d="M41.3741 24.0709C41.1738 23.6063 41.3952 23.0573 41.8697 22.8567L94.2831 0.0839949C94.7576 -0.127157 95.3058 0.0839949 95.5062 0.548529L131.376 83.3307C131.577 83.7952 131.355 84.3442 130.881 84.5448L78.4673 107.318C77.9929 107.529 77.4446 107.318 77.2442 106.853L41.3741 24.0709Z" fill="#0450CF"/>
<path d="M39.0228 24.4191C38.8225 23.944 39.1177 23.3633 39.6976 23.1099L44.2104 21.1462C44.7797 20.8928 45.4229 21.0723 45.6232 21.5474L81.9784 105.459C82.1787 105.934 81.8835 106.515 81.3036 106.768L76.7908 108.732C76.2109 108.985 75.5783 108.806 75.3779 108.331L39.0228 24.4191Z" fill="#0450CF"/>
<path d="M40.6888 25.6331C40.5412 25.2847 39.9508 24.9891 39.3919 24.9891L2.5834 23.9756C2.01404 23.9756 -0.189627 25.1897 0.0212501 25.6648L47.3315 134.841C47.5318 135.316 49.9358 134.545 50.3259 134.155L75.2515 107.75C75.6417 107.349 75.842 106.747 75.6838 106.388L40.6888 25.6331Z" fill="#0450CF"/>
<path d="M42.5973 24.7991C42.4496 24.4507 41.8592 24.1551 41.3004 24.1551L2.58339 23.9756C2.01402 23.9756 1.72934 24.3557 1.92967 24.8308L49.2399 134.007C49.4508 134.482 49.9358 134.545 50.3259 134.144L77.1705 106.916C77.5606 106.515 77.761 105.913 77.6028 105.554L42.5973 24.7991Z" fill="#0561FC"/>
<path d="M4.27026 25.5273H44.9589L79.0577 104.234L50.2098 131.536L4.27026 25.5273Z" fill="#AEC4DB"/>
<path d="M9.24707 23.3633L44.0839 23.5111L79.3109 104.815L55.176 129.383L9.24707 23.3633Z" fill="#BCD0E2"/>
<path d="M14.2131 21.1992L44.0838 23.5113L79.3108 104.815L60.1526 127.219L14.2131 21.1992Z" fill="#CEE0F0"/>
<path d="M18.958 21.1465L43.2826 25.0634L76.675 102.134L62.5146 121.644L18.958 21.1465Z" fill="#AEC4DB"/>
<path d="M19.3796 18.9609L44.0839 23.5113L79.3108 104.815L65.3191 124.98L19.3796 18.9609Z" fill="#E4EEF3"/>
<path d="M43.9785 23.406L93.387 1.94238L128.656 83.352L79.2582 104.816L43.9785 23.406Z" fill="white"/>
<path d="M96.8767 93.8777L183.979 16.6172C184.876 17.9686 184.812 19.7 183.821 20.8719L98.9117 96.1476L96.8767 93.8777Z" fill="#12B886"/>
<path d="M103.762 101.532L98.9116 96.1372L183.821 20.8615C183.832 20.851 183.842 20.851 183.842 20.851L183.821 20.8721C185.224 19.9008 187.216 20.1647 188.471 21.5478C189.705 22.9414 189.757 24.9473 188.661 26.2353C188.671 26.2353 188.682 26.2248 188.692 26.2248C188.682 26.2248 188.671 26.2459 188.671 26.2459V26.2564L103.762 101.532Z" fill="#2EC694"/>
<path d="M188.671 26.2567C189.937 25.4016 191.666 25.5177 192.899 26.5418L105.797 103.813L103.762 101.543L188.671 26.2567Z" fill="#12B886"/>
<path d="M192.91 26.5417C191.666 25.5176 189.937 25.3909 188.672 26.246C188.672 26.246 188.682 26.2249 188.693 26.2144C188.682 26.2144 188.672 26.2249 188.661 26.2249C189.768 24.9369 189.715 22.931 188.471 21.5374C187.227 20.1543 185.224 19.8904 183.821 20.8617L183.842 20.83C183.842 20.83 183.821 20.83 183.811 20.8511C184.802 19.6792 184.865 17.9372 183.958 16.5964L208.768 3.23047L192.91 26.5417Z" fill="#EAF4FE"/>
<path d="M192.91 26.5417C191.666 25.5176 189.937 25.3909 188.671 26.246C188.671 26.246 188.682 26.2249 188.693 26.2144C188.682 26.2144 188.671 26.2249 188.661 26.2249C189.768 24.9369 208.789 3.23047 208.789 3.23047L192.91 26.5417Z" fill="#C5E1F9"/>
<path d="M203.992 10.262C203.517 9.86082 203.043 9.42796 202.61 8.95287C202.136 8.41443 201.714 7.83376 201.334 7.25309L208.778 3.24121L203.992 10.262Z" fill="#30363D"/>
<path d="M134.265 6.21791L66.7214 26.763C64.0011 27.5865 62.4722 30.4687 63.2947 33.1926L88.2941 115.605C89.1165 118.329 91.995 119.86 94.7153 119.036L162.259 98.5019C164.98 97.6784 166.508 94.7962 165.686 92.0829L140.686 9.64913C139.854 6.93583 136.986 5.39442 134.265 6.21791Z" fill="#FD2227"/>
<path d="M94.7155 119.037L162.259 98.5021C164.98 97.6786 166.509 94.7964 165.686 92.0831L162.692 82.2012L90.2238 104.235C87.5035 105.058 85.9747 107.941 86.7971 110.664L88.3049 115.616C89.1273 118.329 91.9952 119.871 94.7155 119.037Z" fill="#DD000B"/>
<path d="M110.573 100.898C109.297 101.289 108.57 102.64 108.96 103.918L110.457 108.869C110.847 110.147 112.197 110.865 113.473 110.485L165.791 94.5743C165.949 93.772 165.928 92.9168 165.675 92.0828L163.472 84.8086L110.573 100.898Z" fill="#BC0012"/>
<path d="M93.9245 116.429C92.6487 116.819 91.2991 116.091 90.909 114.813L89.4118 109.862C89.0217 108.584 89.7492 107.223 91.025 106.842L160.878 85.6006L163.082 92.8748C163.472 94.1522 162.744 95.5036 161.468 95.8942L93.9245 116.429Z" fill="white"/>
<path d="M91.0145 106.842C89.7387 107.233 89.0112 108.584 89.4013 109.862L90.2026 112.512C89.8125 111.234 90.8247 110.823 92.1005 110.432L161.954 89.1902L160.867 85.6006L91.0145 106.842Z" fill="#EAEAEC"/>
<path d="M106.577 120.42L101.516 120.261L97.3936 123.207L94.241 112.808L98.8275 111.414L103.414 110.021L106.577 120.42Z" fill="#136FB7"/>
<path d="M93.6714 32.9818L116.193 26.1299L116.583 27.3968L94.051 34.2487L93.6714 32.9818Z" fill="#BC0012"/>
<path d="M134.333 33.4309L82.6506 49.1484L83.3768 51.5425L135.059 35.8249L134.333 33.4309Z" fill="#BC0012"/>
<path d="M131.33 40.5368L89.0803 53.3857L89.8065 55.7798L132.057 42.9308L131.33 40.5368Z" fill="#BC0012"/>
<defs>
<linearGradient id="paint0_linear" x1="45" y1="60.0242" x2="165" y2="60.0242" gradientUnits="userSpaceOnUse">
<stop stop-color="#2C83DA"/>
<stop offset="1" stop-color="#4AB7F8"/>
</linearGradient>
</defs>
</svg>
