<svg width="204" height="166" viewBox="0 0 204 166" fill="none" xmlns="http://www.w3.org/2000/svg">
<circle cx="102" cy="98" r="60" fill="url(#paint0_linear)"/>
<path d="M177.293 92.4855L186.305 94.5445C190.336 88.2774 193.524 81.8934 195.797 75.623C190.179 72.337 184.072 69.668 177.595 67.8325C145.773 58.7825 110.322 97.2706 126.202 137.71C140.366 136.342 157.339 127.431 172.244 112.148C176.124 108.185 179.609 104.016 182.717 99.7478L177.293 92.4855Z" fill="#ACCC54"/>
<path d="M195.839 75.6248C195.839 75.6248 140.925 79.2792 127.311 133.049C126.915 134.559 118.44 135.102 123.5 152.5" stroke="#629629" stroke-miterlimit="10"/>
<path d="M129.411 91.2158L133.813 115.878" stroke="#629629" stroke-width="3.7115" stroke-miterlimit="10"/>
<path d="M123.811 105.306L129.06 127.182" stroke="#629629" stroke-width="3.7115" stroke-miterlimit="10"/>
<path d="M47.4192 83.939C47.4192 83.939 77.6913 110.158 89.1356 156.364" stroke="#59A43C" stroke-width="3.4047" stroke-miterlimit="10"/>
<path d="M63.4103 119.143C68.9483 121.358 72.9626 125.269 74.0968 129.098C70.627 131.082 65.0465 131.156 59.487 128.943C53.9489 126.729 49.9347 122.817 48.8005 118.989C52.2702 117.004 57.8698 116.907 63.4103 119.143Z" fill="#70B55B"/>
<path d="M53.6616 121.179C60.8676 122.007 71.7038 126.05 83.1205 138.205" stroke="#59A43C" stroke-miterlimit="10"/>
<path d="M72.8394 91.1412C70.7585 101.078 72.5457 110.421 76.8841 115.643C82.9534 112.622 88.3386 104.763 90.4195 94.8262C92.5003 84.8889 90.7131 75.5466 86.3772 70.3453C80.3079 73.3671 74.9202 81.2038 72.8394 91.1412Z" fill="#70B55B"/>
<path d="M83.7021 78.1326C80.8096 86.4883 73.6739 112.488 79.1238 128.37" stroke="#59A43C" stroke-miterlimit="10"/>
<path d="M50.7303 80.1892C49.6378 75.9649 45.4085 73.4046 41.2676 74.4658C37.1507 75.546 34.6835 79.8299 35.8 84.0732C36.8925 88.2975 41.1218 90.8578 45.2627 89.7966C49.3796 88.7164 51.8443 84.411 50.7303 80.1892Z" fill="#59A43C"/>
<path d="M47.4797 79.1479C50.5696 73.4661 54.5499 59.9841 40.9973 49.8794C26.3996 39.0027 8.0735 47.0376 21.3878 62.2801C34.7022 77.5226 24.6611 50.0316 9.82232 57.7543C-2.55123 64.2162 1.35607 76.121 14.4355 78.8643C27.5364 81.605 11.7969 71.7724 6.39844 77.8054C1.01903 83.8145 7.4891 94.3604 20.3834 94.5369C33.6261 94.7171 43.2395 86.9402 47.4797 79.1479Z" fill="#F75751"/>
<path d="M40.5454 49.5397C38.3801 54.1804 35.2611 59.0391 31.3111 63.6667C22.7524 73.628 12.5493 79.8631 4.86648 80.5687C5.1662 79.5775 5.6904 78.6476 6.44154 77.8005C6.94312 77.2429 7.54531 76.8043 8.20763 76.511C0.483271 71.9151 -0.250149 63.0394 9.84641 57.7733C12.6784 56.2965 15.3524 56.0991 17.6997 56.6568C12.9283 45.3727 27.9677 40.5412 40.5454 49.5397Z" fill="#FE7972"/>
<path d="M33.5639 81.0672C33.5639 81.0672 27.0572 74.5704 16.5407 71.2293" stroke="#FDB9C2" stroke-width="1.7023" stroke-miterlimit="10"/>
<path d="M37.7494 76.217C37.7494 76.217 27.7716 67.7037 25.0564 61.273" stroke="#FDB9C2" stroke-width="1.7023" stroke-miterlimit="10"/>
<path d="M35.3563 78.2958L18.8021 64.5767" stroke="#FDB9C2" stroke-width="1.7023" stroke-miterlimit="10"/>
<path d="M17.0233 70.6956C16.9073 70.2522 16.4651 69.9984 16.0432 70.1119C15.5998 70.2279 15.3459 70.6702 15.4595 71.0921C15.5755 71.5355 16.0177 71.7893 16.4397 71.6758C16.8855 71.5812 17.1394 71.139 17.0233 70.6956Z" fill="#FDB9C2"/>
<path d="M19.5501 64.2737C19.4629 63.8922 19.0661 63.655 18.6871 63.7636C18.3081 63.8722 18.0683 64.2476 18.177 64.6266C18.2856 65.0056 18.6585 65.2239 19.04 65.1367C19.4215 65.0496 19.6587 64.6527 19.5501 64.2737Z" fill="#FDB9C2"/>
<path d="M25.9394 60.6282C25.8234 60.1848 25.3811 59.931 24.9592 60.0445C24.5158 60.1605 24.2619 60.6028 24.3755 61.0247C24.489 61.4467 24.9337 61.7219 25.3557 61.6084C25.7991 61.4924 26.0529 61.0501 25.9394 60.6282Z" fill="#FDB9C2"/>
<path d="M20.4262 94.5319C14.2845 94.4521 9.59032 92.0102 6.96472 88.8313C7.65608 86.5122 9.14347 83.928 12.1282 82.4555C20.1152 78.5183 32.8929 87.3635 32.4776 87.3458C22.9259 87.1127 25.7731 75.8916 27.9949 71.7446C29.676 68.5728 33.2583 68.1409 36.8776 68.7922C33.8443 66.4211 31.6829 62.9281 31.5517 57.2237C31.3911 51.2617 33.861 48.5215 37.0641 47.4372C38.4025 48.1103 39.7366 48.9362 41.0426 49.8958C54.5951 60.0005 50.6149 73.4825 47.5249 79.1643C43.2394 86.9401 33.626 94.7169 20.4262 94.5319Z" fill="#F7B03E"/>
<path d="M158.639 19.5502C158.639 19.5502 166.735 17.2643 171.187 10.6975C172.8 8.30837 173.595 2.84048 171.122 1.16592C168.65 -0.508637 164.581 1.17022 162.231 4.63246C157.775 11.175 158.639 19.5502 158.639 19.5502Z" fill="#70B55B"/>
<path d="M150.43 29.9563C150.43 29.9563 153.769 23.4018 152.113 16.7519C151.516 14.3353 148.388 10.6986 145.805 11.3447C143.222 11.9909 141.883 15.5797 142.759 19.0711C144.39 25.7245 150.43 29.9563 150.43 29.9563Z" fill="#70B55B"/>
<path d="M143.353 43.7423C143.353 43.7423 143.729 36.4021 139.502 30.9914C137.979 29.0308 133.619 26.9849 131.527 28.6256C129.435 30.2664 129.688 34.0711 131.909 36.9219C136.136 42.3326 143.353 43.7423 143.353 43.7423Z" fill="#70B55B"/>
<path d="M150.392 30.3831C150.392 30.3831 156.07 34.1714 162.906 33.9759C165.4 33.9126 169.635 32.0115 169.569 29.8402C169.503 27.669 166.313 25.9991 162.685 26.1025C155.82 26.2773 150.392 30.3831 150.392 30.3831Z" fill="#70B55B"/>
<path d="M142.492 43.2721C142.492 43.2721 148.177 47.2825 155.013 47.0869C157.507 47.0236 161.729 45.0254 161.669 42.7293C161.61 40.4332 158.377 38.6454 154.777 38.7696C147.913 38.9444 142.492 43.2721 142.492 43.2721Z" fill="#70B55B"/>
<path d="M135.02 62.716C135.02 62.716 139.373 66.7702 144.603 66.6086C146.504 66.5568 149.716 64.6054 149.653 62.285C149.593 59.9889 147.128 58.1894 144.363 58.267C139.133 58.4286 135.02 62.716 135.02 62.716Z" fill="#70B55B"/>
<path d="M134.269 62.3289C134.269 62.3289 135.04 56.6911 132.309 51.8571C131.311 50.0933 128.258 47.8335 126.584 48.7695C124.935 49.7019 124.846 52.6885 126.283 55.2563C129.042 60.111 134.269 62.3289 134.269 62.3289Z" fill="#70B55B"/>
<path d="M85.8729 131.579L86.5859 130.683L86.2294 131.131L86.5859 130.683C86.697 130.766 89.2532 132.677 93.8363 131.295C102.455 128.686 116.181 115.301 132.712 66.4695C141.426 40.7001 150.591 29.016 156.637 21.3018C158.184 19.3186 159.524 17.6132 160.537 16.0541L161.496 16.6837C160.461 18.2706 159.105 20.0281 157.533 22.0148C151.529 29.6734 142.447 41.2464 133.805 66.8318C117.085 116.236 103.005 129.746 94.1192 132.394C88.964 133.933 86.0118 131.683 85.8729 131.579Z" fill="#70B55B"/>
<path d="M113.447 130.734C110.92 131.251 101.586 134.419 94.2171 125.83C86.8479 117.24 94.2171 107.828 77.8495 100.868C61.4971 93.9086 56.5945 83.6744 68.8664 68.125C81.1383 52.5757 70.9066 52.1645 71.7288 39.0823C72.5358 25.985 98.7239 7.16127 119.583 23.1218C132.494 32.9905 137.595 35.808 128.993 64.4395C120.253 93.5735 140.869 84.4968 145.36 97.5941C149.867 110.692 129.404 127.459 113.447 130.734Z" fill="#212A54"/>
<path d="M93.4105 74.2629C93.4105 74.2629 98.7243 79.578 97.5062 86.1267C96.2729 92.6754 84.001 95.5386 77.454 105.773C70.907 116.007 75.3902 151.929 78 153C88.0122 157.107 96.0472 158.254 104 158C111.536 157.759 118.999 156.345 128 152C142.5 145 127.349 107.006 123.664 100.047C119.979 93.0866 120.39 89.0051 112.625 89.4011C104.845 89.8123 107.723 75.4813 109.352 68.9478C110.996 62.3991 93.4105 74.2629 93.4105 74.2629Z" fill="#F7B68B"/>
<path d="M96.7448 88.0914C100.703 85.9745 104.312 83.355 107.494 80.2939C107.662 76.2885 108.636 71.8415 109.367 68.9327C111.011 62.384 93.4104 74.2478 93.4104 74.2478C93.4104 74.2478 98.7242 79.5629 97.5061 86.1116C97.3691 86.8273 97.1102 87.4822 96.7448 88.0914Z" fill="#EC9568"/>
<path d="M92.1771 25.5742C92.1771 25.5742 59.2592 79.9588 96.6839 75.9078C111.818 74.263 113.052 67.7143 114.681 63.2216C116.31 58.7136 121.639 66.0847 122.857 57.0841C124.09 48.0834 121.228 48.4946 117.132 52.5761C113.036 56.6729 111.407 54.6169 110.996 48.0682C110.585 41.5195 116.721 39.89 104.449 39.89C92.1771 39.89 87.6855 35.3973 92.1771 25.5742Z" fill="#F7B68B"/>
<path d="M81.5498 115.261L116.721 112.458L120.5 155C120.5 155 113 158 102.5 158C92 158 84.5 155.5 84.5 155.5L81.5498 115.261Z" fill="#FFDC68"/>
<path d="M86.8632 95.1426C86.8632 95.1426 79.9051 103.732 83.5897 118.87" stroke="#FFDC68" stroke-width="3.385" stroke-miterlimit="10"/>
<path d="M110.996 89.4011C110.996 89.4011 106.093 98.813 113.447 117.225" stroke="#FFDC68" stroke-width="3.385" stroke-miterlimit="10"/>
<defs>
<linearGradient id="paint0_linear" x1="42" y1="98.0242" x2="162" y2="98.0242" gradientUnits="userSpaceOnUse">
<stop stop-color="#2C83DA"/>
<stop offset="1" stop-color="#4AB7F8"/>
</linearGradient>
</defs>
</svg>
