<svg width="124" height="177" viewBox="0 0 124 177" fill="none" xmlns="http://www.w3.org/2000/svg">
<path d="M98.1253 15.7332L104.573 12.4033C107.963 10.6552 109.616 6.90917 107.88 3.41287C106.144 -0.000180731 102.176 -0.832632 98.7867 0.915516C98.7867 0.915516 83.576 8.90705 82.9973 9.48977C76.4667 7.57513 69.3573 6.57619 62 6.57619C27.8587 6.57619 0 28.3864 0 55.1914C0 63.4326 2.64533 71.5906 7.77067 78.7497C9.58933 81.3303 11.656 83.7444 14.0533 85.9921C14.136 86.0753 14.2187 86.1585 14.3013 86.2418C18.5173 108.884 37.7787 125.367 60.512 126.116C62.1653 128.863 64.0667 131.028 66.216 132.942C66.216 132.942 38.3573 132.942 38.5227 132.942C29.9253 132.942 22.4853 138.02 19.0133 145.263C17.608 148.093 16.864 151.339 16.864 154.753C16.864 158.166 17.608 161.412 19.0133 164.243C22.4853 171.485 29.9253 176.48 38.5227 176.48H85.808C94.4053 176.48 101.845 171.402 105.317 164.159C106.723 161.329 107.467 158.082 107.467 154.669C107.467 151.256 106.723 148.01 105.317 145.179C102.837 139.935 98.2907 135.939 92.752 134.025C91.5947 133.692 90.6853 133.442 89.9413 133.192C84.32 131.444 79.1947 128.447 75.0613 124.285C92.5867 119.373 106.309 104.889 109.781 86.2418C109.864 86.1585 109.947 86.0753 110.029 85.9921C112.427 83.7444 114.493 81.2471 116.312 78.7497C121.355 71.5906 124.083 63.4326 124.083 55.1914C124 38.9586 113.832 24.5571 98.1253 15.7332ZM85.808 164.159H38.5227C33.3147 164.159 29.0987 159.914 29.0987 154.669C29.0987 149.425 33.3147 145.179 38.5227 145.179C38.8533 145.179 85.7253 145.179 85.808 145.179C91.016 145.179 95.232 149.425 95.232 154.669C95.232 159.914 91.016 164.159 85.808 164.159ZM94.6533 93.1511C88.6187 105.638 75.8053 113.713 62 113.713C48.2773 113.713 35.464 105.638 29.3467 93.1511C27.528 89.4051 26.3707 85.4926 25.9573 81.4136L62 63.5991L98.1253 81.4136C97.5467 85.4926 96.472 89.4051 94.6533 93.1511ZM107.136 70.342C106.888 70.7582 106.557 71.1744 106.309 71.5907L39.1013 38.5423L33.6453 49.6972L47.9467 56.6898L17.7733 71.5907C17.4427 71.1744 17.1947 70.7582 16.9467 70.342C13.888 65.597 12.4 60.4358 12.4 55.1914C12.4 35.2125 34.72 18.9797 62.0827 18.9797C89.4453 18.9797 111.765 35.2125 111.765 55.1914C111.683 60.519 110.195 65.597 107.136 70.342Z" fill="white"/>
<path d="M74.9786 93.4011C79.1119 93.4011 82.4186 90.0713 82.4186 85.9091C82.4186 81.7468 79.1119 78.417 74.9786 78.417C70.8452 78.417 67.5386 81.7468 67.5386 85.9091C67.5386 90.0713 70.9279 93.4011 74.9786 93.4011Z" fill="white"/>
<path d="M49.0213 93.4011C53.1546 93.4011 56.4613 90.0713 56.4613 85.9091C56.4613 81.7468 53.1546 78.417 49.0213 78.417C44.888 78.417 41.5813 81.7468 41.5813 85.9091C41.5813 90.0713 44.888 93.4011 49.0213 93.4011Z" fill="white"/>
</svg>
