<svg width="38" height="38" viewBox="0 0 38 38" fill="none" xmlns="http://www.w3.org/2000/svg">
<path d="M4.75 6.33301V1.58301H7.91667V6.33301H12.6667V9.49968H7.91667V14.2497H4.75V9.49968H0V6.33301H4.75ZM9.5 15.833V11.083H14.25V6.33301H25.3333L28.1833 9.49968H33.25C34.9917 9.49968 36.4167 10.9247 36.4167 12.6663V31.6663C36.4167 33.408 34.9917 34.833 33.25 34.833H7.91667C6.175 34.833 4.75 33.408 4.75 31.6663V15.833H9.5ZM20.5833 30.083C27.6292 30.083 31.1758 21.5647 26.1883 16.5613C21.2008 11.5738 12.6667 15.1205 12.6667 22.1663C12.6667 26.5363 16.2133 30.083 20.5833 30.083ZM15.5167 22.1663C15.5167 26.6788 20.9792 28.943 24.1617 25.7447C27.36 22.5622 25.0958 17.0997 20.5833 17.0997C17.7967 17.0997 15.5167 19.3797 15.5167 22.1663Z" fill="white"/>
</svg>
