<svg width="34" height="33" viewBox="0 0 34 33" fill="none" xmlns="http://www.w3.org/2000/svg">
<path d="M17 23.375C14.6909 23.375 12.665 22.2887 11.3334 20.625H17C18.1272 20.625 19.2082 20.1904 20.0052 19.4168C20.8023 18.6432 21.25 17.594 21.25 16.5C21.25 16.0188 21.1509 15.5513 20.995 15.125H23.9417C24.0267 15.565 24.0834 16.0325 24.0834 16.5C24.0834 18.3234 23.3371 20.072 22.0087 21.3614C20.6803 22.6507 18.8787 23.375 17 23.375ZM17 9.625C19.3092 9.625 21.335 10.7112 22.6667 12.375H17C15.8729 12.375 14.7919 12.8096 13.9948 13.5832C13.1978 14.3568 12.75 15.406 12.75 16.5C12.75 16.9812 12.8492 17.435 13.005 17.875H10.0584C9.95921 17.435 9.91671 16.9675 9.91671 16.5C9.91671 14.6766 10.663 12.928 11.9914 11.6386C13.3198 10.3493 15.1214 9.625 17 9.625ZM28.3334 5.5H23.8425L21.25 2.75H12.75L10.1575 5.5H5.66671C4.91526 5.5 4.19459 5.78973 3.66324 6.30546C3.13188 6.82118 2.83337 7.52065 2.83337 8.25V24.75C2.83337 25.4793 3.13188 26.1788 3.66324 26.6945C4.19459 27.2103 4.91526 27.5 5.66671 27.5H28.3334C29.0848 27.5 29.8055 27.2103 30.3368 26.6945C30.8682 26.1788 31.1667 25.4793 31.1667 24.75V8.25C31.1667 6.72375 29.8917 5.5 28.3334 5.5Z" fill="white"/>
</svg>
