<svg width="369" height="322" viewBox="0 0 369 322" fill="none" xmlns="http://www.w3.org/2000/svg">
<path opacity="0.6" d="M368.5 137.6C368.5 239.4 286 321.8 184.3 321.8C82.6 321.8 0 239.4 0 137.6C0 133 0.2 128.5 0.5 124H368C368.3 128.5 368.5 133 368.5 137.6Z" fill="url(#paint0_linear)"/>
<path opacity="0.85" d="M315.5 223C310.803 223 307 226.803 307 231.5C307 236.197 310.803 240 315.5 240C320.197 240 324 236.197 324 231.5C324.013 226.803 320.197 223 315.5 223ZM315.5 235.757C313.151 235.757 311.243 233.849 311.243 231.5C311.243 229.151 313.151 227.243 315.5 227.243C317.848 227.243 319.757 229.151 319.757 231.5C319.757 233.849 317.848 235.757 315.5 235.757Z" fill="white"/>
<path opacity="0.6" d="M339 140.962C339 65.821 269.597 5 184.042 5C98.4871 5 29 65.821 29 140.962C29 144.357 29.1682 147.678 29.4206 151H338.579C338.832 147.678 339 144.357 339 140.962Z" fill="url(#paint1_linear)"/>
<path opacity="0.85" d="M61.4886 0C53.4824 0 47 6.48235 47 14.4886C47 22.4949 53.4824 28.9773 61.4886 28.9773C69.4949 28.9773 75.9773 22.4949 75.9773 14.4886C76 6.48235 69.4949 0 61.4886 0ZM61.4886 21.7443C57.4855 21.7443 54.2329 18.4918 54.2329 14.4886C54.2329 10.4855 57.4855 7.23294 61.4886 7.23294C65.4918 7.23294 68.7443 10.4855 68.7443 14.4886C68.7443 18.4918 65.4918 21.7443 61.4886 21.7443Z" fill="white"/>
<defs>
<linearGradient id="paint0_linear" x1="0" y1="222.94" x2="368.5" y2="222.94" gradientUnits="userSpaceOnUse">
<stop stop-color="#2C83DA"/>
<stop offset="1" stop-color="#4AB7F8"/>
</linearGradient>
<linearGradient id="paint1_linear" x1="29" y1="77.9706" x2="339" y2="77.9706" gradientUnits="userSpaceOnUse">
<stop stop-color="#2C83DA"/>
<stop offset="1" stop-color="#4AB7F8"/>
</linearGradient>
</defs>
</svg>
