<svg width="215" height="215" viewBox="0 0 215 215" fill="none" xmlns="http://www.w3.org/2000/svg">
<circle cx="107.5" cy="107.5" r="107.5" fill="white"/>
<path d="M106.38 39.5156C103.675 39.5762 101.993 40.1217 99.9492 41.758C97.1847 43.9399 93.9393 45.152 90.6338 46.2429C86.6673 47.5156 84.684 50.2429 82.821 53.8793C82.0998 55.2732 81.4988 56.7884 81.1382 58.3035L80.2367 73.152L83.8426 78.6065" stroke="#B1BAC9" stroke-width="5" stroke-miterlimit="10"/>
<path d="M128.617 78.6065L132.823 73.152L131.321 58.3035C131.321 58.3035 126.513 40.1217 106.079 39.5156" stroke="#B1BAC9" stroke-width="5" stroke-miterlimit="10"/>
<path d="M84.7441 125.576C86.4269 126.97 88.0496 128.425 89.7925 129.758C91.0545 130.728 92.2565 132.182 93.759 132.728C94.2999 132.909 94.8408 132.909 95.3817 132.97C96.2832 132.97 97.2448 132.97 98.0861 132.606C99.9492 131.879 100.971 129.879 102.293 128.485C103.255 127.516 104.216 126.546 105.178 125.576" stroke="#B1BAC9" stroke-width="5" stroke-miterlimit="10"/>
<path d="M108.784 125.576C110.467 126.97 112.089 128.425 113.832 129.758C115.094 130.728 116.296 132.182 117.799 132.728C118.34 132.909 118.88 132.909 119.421 132.97C120.323 132.97 121.284 132.97 122.126 132.606C123.989 131.879 125.011 129.879 126.333 128.485C127.294 127.516 128.256 126.546 129.218 125.576" stroke="#B1BAC9" stroke-width="5" stroke-miterlimit="10"/>
<path d="M85.9461 75.8789C85.9461 75.8789 80.5372 80.1213 85.3451 88.6062C85.3451 88.6062 85.9461 89.8183 88.35 90.4244C88.35 90.4244 90.153 105.576 106.981 107.394" stroke="#B1BAC9" stroke-width="5" stroke-miterlimit="10"/>
<path d="M127.234 75.8789C127.234 75.8789 132.643 80.1213 127.835 88.6062C127.835 88.6062 127.234 89.8183 124.83 90.4244C124.83 90.4244 123.027 105.576 106.199 107.394" stroke="#B1BAC9" stroke-width="5" stroke-miterlimit="10"/>
<path d="M80.2367 74.3636C82.1599 72.2424 84.5037 70.4242 86.2466 68.1818C88.29 65.5152 89.6122 61.9394 92.1964 59.7576C94.1196 58.1212 96.6438 56.9697 99.1679 56.7273C102.113 56.4848 104.276 58.303 107.101 58.5455" stroke="#B1BAC9" stroke-width="5" stroke-miterlimit="10"/>
<path d="M132.944 74.3636C131.02 72.2424 128.677 70.4242 126.934 68.1818C124.89 65.5152 123.568 61.9394 120.984 59.7576C119.061 58.1212 116.537 56.9697 114.012 56.7273C111.068 56.4848 108.904 58.303 106.079 58.5455" stroke="#B1BAC9" stroke-width="5" stroke-miterlimit="10"/>
<path d="M92.7974 100.182C91.956 103.151 94.0595 115.576 80.5372 118.909C58.7212 124.303 59.5025 140.727 59.5025 140.727" stroke="#B1BAC9" stroke-width="5" stroke-miterlimit="10"/>
<path d="M120.203 101.395C121.044 104.364 118.941 116.788 132.463 120.122C154.279 125.516 153.498 141.94 153.498 141.94" stroke="#B1BAC9" stroke-width="5" stroke-miterlimit="10"/>
<path d="M88.951 113.939C88.951 113.939 101.572 124.97 106.981 125.576C112.51 124.909 118.159 120.303 123.869 115.697" stroke="#B1BAC9" stroke-width="5" stroke-miterlimit="10"/>
<path d="M100.069 131.091L104.877 135.576H109.084L113.892 131.333" stroke="#B1BAC9" stroke-width="5" stroke-miterlimit="10"/>
</svg>
