<svg width="215" height="215" viewBox="0 0 215 215" fill="none" xmlns="http://www.w3.org/2000/svg">
<circle cx="107.5" cy="107.5" r="107.5" fill="white"/>
<g clip-path="url(#clip0)">
<path d="M99.1158 56.6475C99.1158 56.6475 104.274 67.0209 127.774 72.2076" stroke="#B1BAC9" stroke-width="5" stroke-miterlimit="10"/>
<path d="M102.841 60.1045C102.841 60.1045 99.5743 66.6167 84.7865 69.9016" stroke="#B1BAC9" stroke-width="5" stroke-miterlimit="10"/>
<path d="M116.311 105.057C115.738 113.125 117.457 120.04 117.457 120.04C122.043 140.787 135.225 137.329 135.225 137.329C128.921 130.99 134.079 116.583 134.079 116.583C136.372 108.63 136.085 100.043 135.455 91.8594C134.767 82.581 133.965 72.9568 131.672 63.9088C129.551 55.3796 125.367 45.813 116.769 42.1823C113.502 40.7416 110.579 41.0297 107.14 41.0874C87.6523 41.6637 83.0669 58.9527 83.0669 58.9527C83.0669 58.9527 73.6096 99.5818 73.6096 119.176C73.6096 119.176 75.9023 105.345 81.0608 97.8529" stroke="#B1BAC9" stroke-width="5" stroke-miterlimit="10"/>
<path d="M80.7744 95.2588C80.7744 95.2588 87.0793 126.955 79.0549 137.329C79.0549 137.329 100.835 136.176 97.9696 105.056" stroke="#B1BAC9" stroke-width="5" stroke-miterlimit="10"/>
<path d="M96.8231 126.955C96.8231 126.955 104.274 133.294 105.421 133.871C105.421 133.871 107.14 135.023 109.433 133.871L116.311 126.955" stroke="#B1BAC9" stroke-width="5" stroke-miterlimit="10"/>
<path d="M87.0792 72.207C87.0792 72.207 81.9207 76.2411 86.5061 84.3093C86.5061 84.3093 87.0792 85.4619 89.3719 86.0382C89.3719 86.0382 91.0914 100.446 107.14 102.175C107.14 102.175 117.457 102.751 124.909 86.6145L125.482 84.8856C125.482 84.8856 132.36 81.4278 127.774 74.5122" stroke="#B1BAC9" stroke-width="5" stroke-miterlimit="10"/>
<path d="M62.4328 137.329C62.4328 137.329 61.2864 119.464 82.4938 116.582" stroke="#B1BAC9" stroke-width="5" stroke-miterlimit="10"/>
<path d="M153.567 137.329C153.567 137.329 154.713 119.464 133.506 116.582" stroke="#B1BAC9" stroke-width="5" stroke-miterlimit="10"/>
</g>
<defs>
<clipPath id="clip0">
<rect width="94" height="104" fill="white" transform="translate(61 35)"/>
</clipPath>
</defs>
</svg>
